RBDS020runT35_grf
version=1
nRows=12
nColumns=19
inDegrees=no
endheader
time	ground_force_r_vx	ground_force_r_vy	ground_force_r_vz	ground_force_r_px	ground_force_r_py	ground_force_r_pz	ground_force_r_mx	ground_force_r_my	ground_force_r_mz	ground_force_l_vx	ground_force_l_vy	ground_force_l_vz	ground_force_l_px	ground_force_l_py	ground_force_l_pz	ground_force_l_mx	ground_force_l_my	ground_force_l_mz
      7.49900000	   -180.98886286	   1518.84177449	    -45.89427862	      2.21814741	      0.00000000	      1.09743870	      0.00000000	      5.51811887	      0.00000000	      0.00000000	      0.00000000	      0.00000000	      0.00000000	      0.00000000	      0.00000000	      0.00000000	      0.00000000	      0.00000000
      7.50000000	   -179.28935131	   1526.64572814	    -47.14591382	      2.21553128	      0.00000000	      1.09759001	      0.00000000	      5.67727093	      0.00000000	      0.00000000	      0.00000000	      0.00000000	      0.00000000	      0.00000000	      0.00000000	      0.00000000	      0.00000000	      0.00000000
      7.50100000	   -176.93012863	   1533.10029720	    -48.40359905	      2.21283945	      0.00000000	      1.09776121	      0.00000000	      5.81604278	      0.00000000	      0.00000000	      0.00000000	      0.00000000	      0.00000000	      0.00000000	      0.00000000	      0.00000000	      0.00000000	      0.00000000
      7.50200000	   -174.57090595	   1539.55486625	    -49.66128427	      2.21014763	      0.00000000	      1.09793242	      0.00000000	      5.95481462	      0.00000000	      0.00000000	      0.00000000	      0.00000000	      0.00000000	      0.00000000	      0.00000000	      0.00000000	      0.00000000	      0.00000000
      7.50300000	   -172.21168327	   1546.00943530	    -50.91896950	      2.20745580	      0.00000000	      1.09810363	      0.00000000	      6.09358647	      0.00000000	      0.00000000	      0.00000000	      0.00000000	      0.00000000	      0.00000000	      0.00000000	      0.00000000	      0.00000000	      0.00000000
      7.50400000	   -169.43375738	   1551.55514757	    -52.16249991	      2.20472108	      0.00000000	      1.09828490	      0.00000000	      6.21663962	      0.00000000	      0.00000000	      0.00000000	      0.00000000	      0.00000000	      0.00000000	      0.00000000	      0.00000000	      0.00000000	      0.00000000
      7.50500000	   -166.44647989	   1556.64643145	    -53.39895293	      2.20196491	      0.00000000	      1.09847121	      0.00000000	      6.33183342	      0.00000000	      0.00000000	      0.00000000	      0.00000000	      0.00000000	      0.00000000	      0.00000000	      0.00000000	      0.00000000	      0.00000000
      7.50600000	   -163.45920241	   1561.73771532	    -54.63540594	      2.19920874	      0.00000000	      1.09865751	      0.00000000	      6.44702722	      0.00000000	      0.00000000	      0.00000000	      0.00000000	      0.00000000	      0.00000000	      0.00000000	      0.00000000	      0.00000000	      0.00000000
      7.50700000	   -160.27732222	   1566.37006353	    -55.85535508	      2.19643501	      0.00000000	      1.09884713	      0.00000000	      6.55358522	      0.00000000	      0.00000000	      0.00000000	      0.00000000	      0.00000000	      0.00000000	      0.00000000	      0.00000000	      0.00000000	      0.00000000
      7.50800000	   -156.70623662	   1570.08454041	    -57.04229648	      2.19362617	      0.00000000	      1.09904336	      0.00000000	      6.64287160	      0.00000000	      0.00000000	      0.00000000	      0.00000000	      0.00000000	      0.00000000	      0.00000000	      0.00000000	      0.00000000	      0.00000000
      7.50900000	   -153.13515103	   1573.79901729	    -58.22923788	      2.19081732	      0.00000000	      1.09923959	      0.00000000	      6.73215798	      0.00000000	      0.00000000	      0.00000000	      0.00000000	      0.00000000	      0.00000000	      0.00000000	      0.00000000	      0.00000000	      0.00000000
      7.51000000	   -149.56406544	   1577.51349416	    -59.41617928	      2.18800848	      0.00000000	      1.09943582	      0.00000000	      6.82144436	      0.00000000	      0.00000000	      0.00000000	      0.00000000	      0.00000000	      0.00000000	      0.00000000	      0.00000000	      0.00000000	      0.00000000
